# Blender v2.79 (sub 0) OBJ File: ''
# www.blender.org
mtllib Angry_base.mtl
o Angry_base:pCube1
v -1.472538 -1.485100 1.465524
v -0.632142 -1.268766 1.249193
v -1.256206 -0.644704 1.249193
v -0.008081 -1.193458 1.173882
v -0.008081 -0.590901 1.141588
v -0.632142 -0.644704 1.249193
v 0.615983 -1.268766 1.249193
v 0.615983 -0.644704 1.249193
v 1.456379 -1.485100 1.465524
v 1.240047 -0.644704 1.249193
v -0.564430 -0.020641 1.113766
v -1.167962 -0.020641 1.160949
v 1.151804 -0.020641 1.160949
v 0.548271 -0.020641 1.113766
v -0.632142 0.603423 1.249193
v -1.256206 0.603423 1.249193
v 1.240047 0.603423 1.249193
v 0.615983 0.603423 1.249193
v -0.632142 1.227485 1.249193
v -1.472538 1.443819 1.465524
v -0.008081 0.549620 1.141588
v -0.008081 1.152177 1.173882
v 0.615983 1.227485 1.249193
v -1.256206 1.227485 0.625129
v -0.008081 1.227485 0.625129
v -0.632142 1.227485 0.625129
v 0.615983 1.227485 0.625129
v 1.240047 1.227485 0.625129
v -0.632142 1.227485 0.001065
v -1.153954 1.125235 0.001065
v 1.137795 1.125235 0.001065
v 0.615983 1.227485 0.001065
v -0.632142 1.227485 -0.622997
v -1.256206 1.227485 -0.622997
v 1.240047 1.227485 -0.622997
v 0.615983 1.227485 -0.622997
v -0.632142 1.227485 -1.247061
v -0.008081 1.227485 -0.622997
v -0.008081 1.152177 -1.171752
v 0.615983 1.227485 -1.247061
v 1.456379 1.443819 -1.463392
v -1.256206 0.603423 -1.247061
v -0.632142 0.603423 -1.247061
v -0.008081 0.549620 -1.139456
v 0.615983 0.603423 -1.247061
v 1.240047 0.603423 -1.247061
v -0.564430 -0.020641 -1.111637
v -1.167962 -0.020641 -1.158817
v 1.151804 -0.020641 -1.158817
v 0.548271 -0.020641 -1.111637
v -0.632142 -0.644704 -1.247061
v -1.256206 -0.644704 -1.247061
v 1.240047 -0.644704 -1.247061
v 0.615983 -0.644704 -1.247061
v -0.632142 -1.268766 -1.247061
v -1.472538 -1.485100 -1.463392
v -0.008081 -0.590901 -1.139456
v -0.008081 -1.193458 -1.171752
v 0.615983 -1.268766 -1.247061
v -1.256206 -1.268766 -0.622997
v -0.008081 -1.268766 -0.622997
v -0.632142 -1.268766 -0.622997
v 0.615983 -1.268766 -0.622997
v 1.240047 -1.268766 -0.622997
v -0.632142 -1.268766 0.001065
v -1.153954 -1.166517 0.001065
v 1.137795 -1.166517 0.001065
v 0.615983 -1.268766 0.001065
v -0.632142 -1.268766 0.625129
v -1.256206 -1.268766 0.625129
v 1.240047 -1.268766 0.625129
v 0.615983 -1.268766 0.625129
v -0.008081 -1.268766 0.625129
v 1.240047 -0.644704 -0.622999
v 1.083326 -0.566344 0.001065
v 1.240047 -0.644704 0.625129
v 1.104621 -0.020641 -0.555285
v 1.104621 -0.020641 0.557417
v 1.240047 0.603423 -0.622997
v 1.240047 0.603423 0.625129
v 1.083326 0.525063 0.001065
v -1.099487 -0.566344 0.001065
v -1.256206 -0.644704 -0.622997
v -1.256206 -0.644704 0.625129
v -1.120782 -0.020641 -0.555285
v -1.120782 -0.020641 0.557417
v -1.256206 0.603423 -0.622997
v -1.256206 0.603423 0.625129
v -1.099485 0.525063 0.001065
v -0.008081 -0.393989 0.747761
v -0.381426 -0.393989 0.747761
v -0.381426 -0.020641 0.747761
v 0.365267 -0.393989 0.747761
v 0.365267 -0.020641 0.747761
v -0.381426 0.352708 0.747761
v -0.008081 0.352708 0.747761
v 0.365267 0.352708 0.747761
v -0.008081 0.726056 0.374413
v -0.381426 0.726056 0.374413
v -0.381426 0.726056 0.001065
v 0.365267 0.726056 0.374413
v 0.365267 0.726056 0.001065
v -0.381426 0.726056 -0.372283
v -0.008081 0.726056 -0.372283
v 0.365267 0.726056 -0.372283
v -0.008081 0.352708 -0.745629
v -0.381426 0.352708 -0.745629
v -0.381426 -0.020641 -0.745629
v 0.365267 0.352708 -0.745629
v 0.365267 -0.020641 -0.745629
v -0.381426 -0.393989 -0.745629
v -0.008081 -0.393989 -0.745629
v 0.365267 -0.393989 -0.745629
v -0.008081 -0.767337 -0.372283
v -0.381426 -0.767337 -0.372283
v -0.381426 -0.767337 0.001065
v 0.365267 -0.767337 -0.372283
v 0.365267 -0.767337 0.001065
v -0.381426 -0.767337 0.374413
v -0.008081 -0.767337 0.374413
v 0.365267 -0.767337 0.374413
v 0.738616 -0.393989 -0.372283
v 0.738616 -0.393989 0.001065
v 0.738616 -0.020641 -0.372283
v 0.738616 -0.393989 0.374413
v 0.738616 -0.020641 0.374413
v 0.738616 0.352708 -0.372283
v 0.738616 0.352708 0.001065
v 0.738616 0.352708 0.374413
v -0.754774 -0.393989 0.001065
v -0.754774 -0.393989 -0.372283
v -0.754774 -0.020641 -0.372283
v -0.754774 -0.393989 0.374413
v -0.754774 -0.020641 0.374413
v -0.754774 0.352708 -0.372283
v -0.754774 0.352708 0.001065
v -0.754774 0.352708 0.374413
v 1.456379 1.443819 1.465524
v -1.472538 1.443819 -1.463392
v 1.456379 -1.485100 -1.463392
vt 0.375000 0.000000
vt 0.437500 0.000000
vt 0.375000 0.062500
vt 0.500000 0.000000
vt 0.500000 0.062500
vt 0.437500 0.062500
vt 0.562500 0.000000
vt 0.562500 0.062500
vt 0.625000 0.000000
vt 0.625000 0.062500
vt 0.437500 0.125000
vt 0.375000 0.125000
vt 0.625000 0.125000
vt 0.562500 0.125000
vt 0.437500 0.187500
vt 0.375000 0.187500
vt 0.625000 0.187500
vt 0.562500 0.187500
vt 0.437500 0.250000
vt 0.375000 0.250000
vt 0.500000 0.187500
vt 0.500000 0.250000
vt 0.562500 0.250000
vt 0.375000 0.312500
vt 0.500000 0.312500
vt 0.437500 0.312500
vt 0.562500 0.312500
vt 0.625000 0.312500
vt 0.437500 0.375000
vt 0.375000 0.375000
vt 0.625000 0.375000
vt 0.562500 0.375000
vt 0.437500 0.437500
vt 0.375000 0.437500
vt 0.625000 0.437500
vt 0.562500 0.437500
vt 0.437500 0.500000
vt 0.500000 0.437500
vt 0.500000 0.500000
vt 0.562500 0.500000
vt 0.625000 0.500000
vt 0.375000 0.562500
vt 0.437500 0.562500
vt 0.500000 0.562500
vt 0.562500 0.562500
vt 0.625000 0.562500
vt 0.437500 0.625000
vt 0.375000 0.625000
vt 0.625000 0.625000
vt 0.562500 0.625000
vt 0.437500 0.687500
vt 0.375000 0.687500
vt 0.625000 0.687500
vt 0.562500 0.687500
vt 0.437500 0.750000
vt 0.375000 0.750000
vt 0.500000 0.687500
vt 0.500000 0.750000
vt 0.562500 0.750000
vt 0.375000 0.812500
vt 0.500000 0.812500
vt 0.437500 0.812500
vt 0.562500 0.812500
vt 0.625000 0.812500
vt 0.437500 0.875000
vt 0.375000 0.875000
vt 0.625000 0.875000
vt 0.562500 0.875000
vt 0.437500 0.937500
vt 0.375000 0.937500
vt 0.625000 0.937500
vt 0.562500 0.937500
vt 0.437500 1.000000
vt 0.375000 1.000000
vt 0.500000 0.937500
vt 0.500000 1.000000
vt 0.562500 1.000000
vt 0.625000 1.000000
vt 0.812500 0.000000
vt 0.875000 0.062500
vt 0.812500 0.062500
vt 0.750000 0.000000
vt 0.750000 0.062500
vt 0.687500 0.000000
vt 0.687500 0.062500
vt 0.875000 0.125000
vt 0.812500 0.125000
vt 0.687500 0.125000
vt 0.875000 0.187500
vt 0.812500 0.187500
vt 0.687500 0.187500
vt 0.812500 0.250000
vt 0.875000 0.250000
vt 0.750000 0.187500
vt 0.750000 0.250000
vt 0.687500 0.250000
vt 0.125000 0.000000
vt 0.187500 0.000000
vt 0.125000 0.062500
vt 0.250000 0.000000
vt 0.250000 0.062500
vt 0.187500 0.062500
vt 0.312500 0.000000
vt 0.312500 0.062500
vt 0.187500 0.125000
vt 0.125000 0.125000
vt 0.312500 0.125000
vt 0.187500 0.187500
vt 0.125000 0.187500
vt 0.312500 0.187500
vt 0.187500 0.250000
vt 0.250000 0.187500
vt 0.250000 0.250000
vt 0.312500 0.250000
vt 0.500000 0.062500
vt 0.437500 0.062500
vt 0.437500 0.125000
vt 0.562500 0.062500
vt 0.562500 0.125000
vt 0.437500 0.187500
vt 0.500000 0.187500
vt 0.562500 0.187500
vt 0.500000 0.312500
vt 0.437500 0.312500
vt 0.437500 0.375000
vt 0.562500 0.312500
vt 0.562500 0.375000
vt 0.437500 0.437500
vt 0.500000 0.437500
vt 0.562500 0.437500
vt 0.500000 0.562500
vt 0.437500 0.562500
vt 0.437500 0.625000
vt 0.562500 0.562500
vt 0.562500 0.625000
vt 0.437500 0.687500
vt 0.500000 0.687500
vt 0.562500 0.687500
vt 0.500000 0.812500
vt 0.437500 0.812500
vt 0.437500 0.875000
vt 0.562500 0.812500
vt 0.562500 0.875000
vt 0.437500 0.937500
vt 0.500000 0.937500
vt 0.562500 0.937500
vt 0.812500 0.062500
vt 0.750000 0.062500
vt 0.812500 0.125000
vt 0.687500 0.062500
vt 0.687500 0.125000
vt 0.812500 0.187500
vt 0.750000 0.187500
vt 0.687500 0.187500
vt 0.250000 0.062500
vt 0.187500 0.062500
vt 0.187500 0.125000
vt 0.312500 0.062500
vt 0.312500 0.125000
vt 0.187500 0.187500
vt 0.250000 0.187500
vt 0.312500 0.187500
vt 0.625000 0.250000
vt 0.375000 0.500000
vt 0.125000 0.250000
vt 0.625000 0.750000
vt 0.875000 0.000000
vt 0.000000 0.000000
vt 0.707107 0.000000
vt 0.707107 1.000000
vt 0.000000 1.000000
vt 0.000000 0.000000
vt 0.707107 0.000000
vt 0.707107 1.000000
vt 0.000000 1.000000
vt 0.500000 0.000000
vt 1.000000 0.000000
vt 1.000000 0.707107
vt 0.500000 0.707107
vt 0.000000 0.707107
vt 0.000000 0.000000
vt 0.000000 0.000000
vt 0.707107 0.000000
vt 0.707107 1.000000
vt 0.000000 1.000000
vt 0.707107 1.000000
vt 0.707107 0.000000
vt 0.000000 0.000000
vt 0.707107 0.000000
vt 0.707107 1.000000
vt 0.000000 1.000000
vt 0.000000 0.000000
vt 0.707107 0.000000
vt 0.707107 1.000000
vt 0.000000 1.000000
vt 0.000000 1.000000
vt 0.707107 1.000000
vt 0.707107 0.000000
vt 0.000000 0.000000
vt 0.707107 0.000000
vt 0.707107 1.000000
vt 0.000000 0.000000
vt 0.707107 0.000000
vt 0.707107 1.000000
vt 0.000000 1.000000
vt 0.000000 0.000000
vt 0.707107 1.000000
vt 0.000000 1.000000
vt 0.000000 0.000000
vt 0.707107 0.000000
vt 0.707107 1.000000
vt 0.000000 1.000000
vt 0.000000 0.000000
vt 0.707107 0.000000
vt 0.707107 1.000000
vt 0.000000 1.000000
vt 0.000000 0.000000
vt 0.707107 0.000000
vt 0.707107 1.000000
vt 0.000000 1.000000
vt 0.000000 0.000000
vt 0.707107 0.000000
vt 0.707107 1.000000
vt 0.000000 1.000000
vt 0.000000 0.000000
vt 1.000000 0.000000
vt 0.500000 0.866025
vt 0.000000 0.000000
vt 0.707107 0.000000
vt 0.707107 1.000000
vt 0.000000 1.000000
vt 0.000000 0.000000
vt 0.707107 0.000000
vt 0.707107 1.000000
vt 0.000000 1.000000
vt 1.000000 0.000000
vt 0.500000 0.866025
vt 0.000000 1.000000
vt 0.707107 1.000000
vt 0.000000 0.000000
vt 0.000000 1.000000
vt 0.707107 1.000000
vt 0.707107 0.000000
vt 0.000000 0.000000
vt 0.000000 0.000000
vt 0.707107 0.000000
vt 0.707107 1.000000
vt 0.000000 1.000000
vt 0.000000 0.000000
vt 1.000000 0.000000
vt 0.500000 0.866025
vt 0.000000 0.000000
vt 0.707107 1.000000
vt 0.000000 1.000000
vt 0.000000 0.000000
vt 1.000000 0.000000
vt 0.500000 0.866025
vt 0.000000 0.000000
vt 1.000000 0.000000
vt 0.500000 0.866025
vt 0.250000 0.000000
vt 0.250000 0.353553
vt 0.000000 0.176777
vt 0.500000 0.000000
vt 0.500000 0.353553
vt 0.750000 0.000000
vt 0.750000 0.353553
vt 1.000000 0.176777
vt 1.000000 0.000000
vt 0.500000 0.866025
vn 0.1966 0.1966 0.9606
vn 0.1412 0.0802 0.9867
vn 0.0865 0.1565 0.9839
vn 0.0000 0.0263 0.9997
vn 0.0728 0.0809 0.9941
vn -0.1412 0.0802 0.9867
vn -0.0728 0.0809 0.9941
vn -0.1966 0.1966 0.9606
vn -0.0865 0.1565 0.9839
vn 0.0384 -0.0000 0.9993
vn -0.0384 -0.0000 0.9993
vn 0.0728 -0.0809 0.9941
vn 0.0865 -0.1565 0.9839
vn -0.0865 -0.1565 0.9839
vn -0.0728 -0.0809 0.9941
vn 0.1412 -0.0802 0.9867
vn 0.1966 -0.1966 0.9606
vn 0.0000 -0.0263 0.9997
vn -0.1412 -0.0802 0.9867
vn 0.1966 0.9606 -0.1966
vn 0.1014 0.9942 -0.0357
vn 0.0259 0.9931 -0.1148
vn 0.0000 0.9979 0.0641
vn -0.0091 0.9999 -0.0091
vn -0.1014 0.9942 -0.0357
vn 0.0091 0.9999 -0.0091
vn -0.0259 0.9931 -0.1148
vn -0.0889 0.9960 0.0000
vn 0.0889 0.9960 0.0000
vn -0.0091 0.9999 0.0091
vn 0.0259 0.9931 0.1148
vn -0.0259 0.9931 0.1148
vn 0.0091 0.9999 0.0091
vn 0.1014 0.9942 0.0357
vn 0.0000 0.9979 -0.0641
vn -0.1014 0.9942 0.0357
vn -0.1966 0.9606 0.1966
vn 0.0865 -0.1565 -0.9839
vn 0.1412 -0.0802 -0.9867
vn 0.0728 -0.0809 -0.9941
vn 0.0000 -0.0263 -0.9997
vn -0.1412 -0.0802 -0.9867
vn -0.0728 -0.0809 -0.9941
vn -0.1966 -0.1966 -0.9606
vn -0.0865 -0.1565 -0.9839
vn 0.0384 0.0000 -0.9993
vn -0.0384 0.0000 -0.9993
vn 0.0728 0.0809 -0.9941
vn 0.0865 0.1565 -0.9839
vn -0.0865 0.1565 -0.9839
vn -0.0728 0.0809 -0.9941
vn 0.1412 0.0802 -0.9867
vn 0.1966 0.1966 -0.9606
vn 0.0000 0.0263 -0.9997
vn -0.1412 0.0802 -0.9867
vn 0.1966 -0.9606 0.1966
vn 0.1014 -0.9942 0.0357
vn 0.0259 -0.9931 0.1148
vn 0.0000 -0.9979 -0.0641
vn -0.0091 -0.9999 0.0091
vn -0.1014 -0.9942 0.0357
vn 0.0091 -0.9999 0.0091
vn -0.0259 -0.9931 0.1148
vn -0.0889 -0.9960 -0.0000
vn 0.0889 -0.9960 -0.0000
vn -0.0092 -0.9999 -0.0092
vn 0.0259 -0.9931 -0.1148
vn -0.0259 -0.9931 -0.1148
vn 0.0091 -0.9999 -0.0091
vn 0.1014 -0.9942 -0.0357
vn 0.1966 -0.9606 -0.1966
vn 0.0000 -0.9979 0.0641
vn -0.1014 -0.9942 -0.0357
vn -0.1966 -0.9606 -0.1966
vn 0.9814 0.0898 0.1695
vn 0.9839 0.1565 0.0865
vn 0.9915 0.0875 0.0962
vn 0.9990 0.0444 0.0000
vn 0.9814 0.0898 -0.1695
vn 0.9915 0.0875 -0.0962
vn 0.9606 0.1966 -0.1966
vn 0.9839 0.1565 -0.0865
vn 0.9993 0.0000 0.0384
vn 0.9993 0.0000 -0.0384
vn 0.9839 -0.1565 0.0865
vn 0.9915 -0.0875 0.0962
vn 0.9915 -0.0875 -0.0962
vn 0.9839 -0.1565 -0.0865
vn 0.9814 -0.0898 0.1695
vn 0.9606 -0.1966 0.1966
vn 0.9990 -0.0444 0.0000
vn 0.9814 -0.0898 -0.1695
vn -0.9606 0.1966 0.1966
vn -0.9814 0.0898 0.1695
vn -0.9839 0.1565 0.0865
vn -0.9990 0.0444 0.0000
vn -0.9915 0.0875 0.0962
vn -0.9814 0.0898 -0.1695
vn -0.9915 0.0875 -0.0962
vn -0.9606 0.1966 -0.1966
vn -0.9839 0.1565 -0.0865
vn -0.9993 0.0000 0.0384
vn -0.9993 0.0000 -0.0384
vn -0.9915 -0.0875 0.0962
vn -0.9839 -0.1565 0.0865
vn -0.9839 -0.1565 -0.0865
vn -0.9915 -0.0875 -0.0962
vn -0.9814 -0.0898 0.1695
vn -0.9990 -0.0444 0.0000
vn -0.9814 -0.0898 -0.1695
vn -0.9606 -0.1966 -0.1966
vn -0.0000 0.8944 0.4472
vn 0.8944 -0.0000 0.4472
vn -0.8944 0.0000 0.4472
vn -0.0000 -0.8944 0.4472
vn 0.0000 0.4472 -0.8944
vn 0.8944 0.4472 0.0000
vn -0.8944 0.4472 0.0000
vn 0.0000 0.4472 0.8944
vn -0.0000 -0.8944 -0.4472
vn 0.8944 0.0000 -0.4472
vn -0.8944 -0.0000 -0.4472
vn 0.0000 0.8944 -0.4472
vn 0.0000 -0.4472 0.8944
vn 0.8944 -0.4472 -0.0000
vn -0.8944 -0.4472 0.0000
vn 0.0000 -0.4472 -0.8944
vn 0.4472 0.8944 0.0000
vn 0.4472 -0.0000 0.8944
vn 0.4472 0.0000 -0.8944
vn 0.4472 -0.8944 0.0000
vn -0.4472 0.8944 -0.0000
vn -0.4472 -0.0000 0.8944
vn -0.4472 0.0000 -0.8944
vn -0.4472 -0.8944 -0.0000
vn -0.1966 -0.1966 0.9606
vn -0.1966 0.9606 -0.1966
vn 0.9606 -0.1966 -0.1966
vn 0.1966 -0.1966 -0.9606
vn 0.1966 0.9606 0.1966
vn -0.9606 -0.1966 0.1966
vn -0.1966 0.1966 -0.9606
vn -0.1966 -0.9606 0.1966
vn 0.9606 0.1966 0.1966
vn 0.7071 -0.0000 0.7071
vn 0.0000 -0.7071 0.7071
vn 0.0000 0.7071 0.7071
vn -0.7071 -0.0000 0.7071
vn 0.0000 -0.7071 -0.7071
vn 0.7071 -0.7071 -0.0000
vn -0.7071 -0.7071 -0.0000
vn -0.7071 0.0000 -0.7071
vn -0.5773 -0.5774 -0.5774
vn 0.7071 0.0000 -0.7071
vn 0.5774 -0.5774 -0.5774
vn 0.0000 0.7071 -0.7071
vn 0.7071 0.7071 0.0000
vn 0.5773 0.5774 -0.5774
vn 0.5773 0.5773 0.5774
vn -0.5773 -0.5773 0.5774
vn -0.6963 0.6963 0.1741
vn -0.5773 0.5773 0.5774
vn -0.7071 0.7071 0.0000
vn -0.6963 0.6963 -0.1741
vn -0.5773 0.5774 -0.5774
vn 0.5773 -0.5773 0.5774
usemtl rampShader1SG
s 1
f 1/1/1 2/2/2 3/3/3
f 2/2/2 4/4/4 5/5/4 6/6/5
f 4/4/4 7/7/6 8/8/7 5/5/4
f 7/7/6 9/9/8 10/10/9
f 3/3/3 6/6/5 11/11/10 12/12/10
f 8/8/7 10/10/9 13/13/11 14/14/11
f 12/12/10 11/11/10 15/15/12 16/16/13
f 14/14/11 13/13/11 17/17/14 18/18/15
f 16/16/13 19/19/16 20/20/17
f 15/15/12 21/21/18 22/22/18 19/19/16
f 21/21/18 18/18/15 23/23/19 22/22/18
f 18/18/15 17/17/14 23/23/19
f 20/20/20 19/19/21 24/24/22
f 19/19/21 22/22/23 25/25/23 26/26/24
f 22/22/23 23/23/25 27/27/26 25/25/23
f 23/23/25 28/28/27 27/27/26
f 24/24/22 26/26/24 29/29/28 30/30/28
f 27/27/26 28/28/27 31/31/29 32/32/29
f 30/30/28 29/29/28 33/33/30 34/34/31
f 32/32/29 31/31/29 35/35/32 36/36/33
f 34/34/31 33/33/30 37/37/34
f 33/33/30 38/38/35 39/39/35 37/37/34
f 38/38/35 36/36/33 40/40/36 39/39/35
f 40/40/36 35/35/32 41/41/37
f 42/42/38 37/37/39 43/43/40
f 37/37/39 39/39/41 44/44/41 43/43/40
f 39/39/41 40/40/42 45/45/43 44/44/41
f 40/40/42 41/41/44 46/46/45
f 42/42/38 43/43/40 47/47/46 48/48/46
f 45/45/43 46/46/45 49/49/47 50/50/47
f 48/48/46 47/47/46 51/51/48 52/52/49
f 50/50/47 49/49/47 53/53/50 54/54/51
f 52/52/49 55/55/52 56/56/53
f 51/51/48 57/57/54 58/58/54 55/55/52
f 57/57/54 54/54/51 59/59/55 58/58/54
f 54/54/51 53/53/50 59/59/55
f 56/56/56 55/55/57 60/60/58
f 55/55/57 58/58/59 61/61/59 62/62/60
f 58/58/59 59/59/61 63/63/62 61/61/59
f 59/59/61 64/64/63 63/63/62
f 60/60/58 62/62/60 65/65/64 66/66/64
f 63/63/62 64/64/63 67/67/65 68/68/65
f 66/66/64 65/65/64 69/69/66 70/70/67
f 68/68/65 67/67/65 71/71/68 72/72/69
f 70/70/67 2/73/70 1/74/71
f 69/69/66 73/75/72 4/76/72 2/73/70
f 73/75/72 72/72/69 7/77/73 4/76/72
f 7/77/73 71/71/68 9/78/74
f 64/79/75 53/80/76 74/81/77
f 67/82/78 64/79/75 74/81/77 75/83/78
f 71/84/79 67/82/78 75/83/78 76/85/80
f 9/9/81 71/84/79 10/10/82
f 74/81/77 53/80/76 49/86/83 77/87/83
f 10/10/82 76/85/80 78/88/84 13/13/84
f 77/87/83 49/86/83 46/89/85 79/90/86
f 13/13/84 78/88/84 80/91/87 17/17/88
f 35/92/89 46/89/85 41/93/90
f 81/94/91 79/90/86 35/92/89 31/95/91
f 80/91/87 81/94/91 31/95/91 28/96/92
f 17/17/88 80/91/87 28/96/92
f 56/97/93 60/98/94 52/99/95
f 60/98/94 66/100/96 82/101/96 83/102/97
f 66/100/96 70/103/98 84/104/99 82/101/96
f 70/103/98 1/1/100 3/3/101
f 52/99/95 83/102/97 85/105/102 48/106/102
f 84/104/99 3/3/101 12/12/103 86/107/103
f 48/106/102 85/105/102 87/108/104 42/109/105
f 86/107/103 12/12/103 16/16/106 88/110/107
f 42/109/105 87/108/104 34/111/108
f 87/108/104 89/112/109 30/113/109 34/111/108
f 89/112/109 88/110/107 24/114/110 30/113/109
f 24/114/110 16/16/106 20/20/111
f 6/6/112 5/5/112 90/115/112 91/116/112
f 11/11/113 6/6/113 91/116/113 92/117/113
f 5/5/112 8/8/112 93/118/112 90/115/112
f 8/8/114 14/14/114 94/119/114 93/118/114
f 21/21/115 15/15/115 95/120/115 96/121/115
f 15/15/113 11/11/113 92/117/113 95/120/113
f 14/14/114 18/18/114 97/122/114 94/119/114
f 18/18/115 21/21/115 96/121/115 97/122/115
f 26/26/116 25/25/116 98/123/116 99/124/116
f 29/29/117 26/26/117 99/124/117 100/125/117
f 25/25/116 27/27/116 101/126/116 98/123/116
f 27/27/118 32/32/118 102/127/118 101/126/118
f 38/38/119 33/33/119 103/128/119 104/129/119
f 33/33/117 29/29/117 100/125/117 103/128/117
f 32/32/118 36/36/118 105/130/118 102/127/118
f 36/36/119 38/38/119 104/129/119 105/130/119
f 43/43/120 44/44/120 106/131/120 107/132/120
f 47/47/121 43/43/121 107/132/121 108/133/121
f 44/44/120 45/45/120 109/134/120 106/131/120
f 45/45/122 50/50/122 110/135/122 109/134/122
f 57/57/123 51/51/123 111/136/123 112/137/123
f 51/51/121 47/47/121 108/133/121 111/136/121
f 50/50/122 54/54/122 113/138/122 110/135/122
f 54/54/123 57/57/123 112/137/123 113/138/123
f 62/62/124 61/61/124 114/139/124 115/140/124
f 65/65/125 62/62/125 115/140/125 116/141/125
f 61/61/124 63/63/124 117/142/124 114/139/124
f 63/63/126 68/68/126 118/143/126 117/142/126
f 73/75/127 69/69/127 119/144/127 120/145/127
f 69/69/125 65/65/125 116/141/125 119/144/125
f 68/68/126 72/72/126 121/146/126 118/143/126
f 72/72/127 73/75/127 120/145/127 121/146/127
f 75/83/128 74/81/128 122/147/128 123/148/128
f 74/81/129 77/87/129 124/149/129 122/147/129
f 76/85/128 75/83/128 123/148/128 125/150/128
f 78/88/130 76/85/130 125/150/130 126/151/130
f 77/87/129 79/90/129 127/152/129 124/149/129
f 79/90/131 81/94/131 128/153/131 127/152/131
f 81/94/131 80/91/131 129/154/131 128/153/131
f 80/91/130 78/88/130 126/151/130 129/154/130
f 83/102/132 82/101/132 130/155/132 131/156/132
f 85/105/133 83/102/133 131/156/133 132/157/133
f 82/101/132 84/104/132 133/158/132 130/155/132
f 84/104/134 86/107/134 134/159/134 133/158/134
f 89/112/135 87/108/135 135/160/135 136/161/135
f 87/108/133 85/105/133 132/157/133 135/160/133
f 86/107/134 88/110/134 137/162/134 134/159/134
f 88/110/135 89/112/135 136/161/135 137/162/135
f 88/110/107 16/16/106 24/114/110
f 16/16/13 15/15/12 19/19/16
f 24/24/22 19/19/21 26/26/24
f 23/23/19 17/17/14 138/163/136
f 23/23/25 138/163/137 28/28/27
f 17/17/88 28/96/92 138/163/138
f 40/40/42 46/46/45 45/45/43
f 36/36/33 35/35/32 40/40/36
f 79/90/86 46/89/85 35/92/89
f 139/164/139 37/37/39 42/42/38
f 34/34/31 37/37/34 139/164/140
f 42/109/105 34/111/108 139/165/141
f 7/7/6 10/10/9 8/8/7
f 72/72/69 71/71/68 7/77/73
f 10/10/82 71/84/79 76/85/80
f 70/70/67 69/69/66 2/73/70
f 3/3/3 2/2/2 6/6/5
f 70/103/98 3/3/101 84/104/99
f 60/60/58 55/55/57 62/62/60
f 52/99/95 60/98/94 83/102/97
f 52/52/49 51/51/48 55/55/52
f 59/59/55 53/53/50 140/166/142
f 59/59/61 140/166/143 64/64/63
f 64/79/75 140/167/144 53/80/76
f 108/168/145 107/169/145 135/170/145 132/171/145
f 111/172/145 108/173/145 132/174/145 131/175/145
f 106/176/146 109/177/146 105/178/146 104/179/146
f 106/176/146 104/179/146 103/180/146 107/181/146
f 114/182/147 117/183/147 113/184/147 112/185/147
f 112/185/147 111/186/147 115/187/147 114/182/147
f 110/188/148 113/189/148 122/190/148 124/191/148
f 124/192/148 127/193/148 109/194/148 110/195/148
f 96/196/149 95/197/149 99/198/149 98/199/149
f 98/199/149 101/200/149 97/201/149 96/196/149
f 136/202/150 135/203/150 103/204/150 100/205/150
f 100/206/150 99/198/150 137/207/150 136/208/150
f 128/209/151 129/210/151 101/211/151 102/212/151
f 102/213/151 105/214/151 127/215/151 128/216/151
f 94/217/152 97/218/152 129/219/152 126/220/152
f 126/221/152 125/222/152 93/223/152 94/224/152
f 129/225/153 97/226/153 101/227/153
f 95/228/154 92/229/154 134/230/154 137/231/154
f 92/232/154 91/233/154 133/234/154 134/235/154
f 95/228/155 137/236/155 99/237/155
f 120/238/156 119/239/156 91/233/156 90/240/156
f 121/241/156 120/242/156 90/243/156 93/244/156
f 119/245/157 116/246/157 130/247/157 133/248/157
f 91/249/158 119/250/158 133/251/158
f 116/252/157 115/187/157 131/253/157 130/254/157
f 131/255/159 115/256/159 111/257/159
f 109/258/160 127/259/160 105/260/160
f 117/261/161 122/262/161 113/263/162
f 118/264/163 123/265/163 122/262/161 117/261/161
f 118/264/163 121/266/164 125/267/164 123/265/163
f 125/267/164 121/266/164 93/268/165
f 107/181/166 103/269/166 135/270/166
